<svg width="1012" height="430" viewBox="0 0 1012 430" class="keymap" xmlns="http://www.w3.org/2000/svg" xmlns:xlink="http://www.w3.org/1999/xlink">
<style>svg {
  font-family: -apple-system, BlinkMacSystemFont, "SF Pro Text", "Helvetica Neue", Helvetica, Arial, sans-serif;
  font-size: 14px;
  font-kerning: normal;
  text-rendering: optimizeLegibility;
}
text { text-anchor: middle; dominant-baseline: middle; }
rect.key { fill: #f5f5f5; stroke: #cccccc; }
rect.held { fill: #a8d8ea; }
text.tap { font-size: 12px; fill: #333333; }
text.hold { font-size: 10px; fill: #666666; }
/* RGB layer indicator borders */
.rgb-magenta > rect { stroke: #ff00ff; stroke-width: 2.5; }
.rgb-blue > rect { stroke: #4488ff; stroke-width: 2.5; }
.rgb-yellow > rect { stroke: #ffaa00; stroke-width: 2.5; }
.rgb-cyan > rect { stroke: #00dddd; stroke-width: 2.5; }
.rgb-green > rect { stroke: #44dd44; stroke-width: 2.5; }
.rgb-green-dark > rect { stroke: #228822; stroke-width: 2.5; }
.rgb-red > rect { stroke: #ff4444; stroke-width: 2.5; }
.rgb-orange > rect { stroke: #ff8000; stroke-width: 2.5; }
</style>
<g transform="translate(30, 0)" class="layer-Raise">
<text x="0" y="28" class="label" id="Raise">Raise:</text>
<g transform="translate(0, 56)">
<g transform="translate(28, 70)" class="key rgb-yellow keypos-0">
<rect rx="6" ry="6" x="-26" y="-26" width="52" height="52" class="key rgb-yellow"/>
<text x="0" y="0" class="key rgb-yellow tap">`</text>
</g>
<g transform="translate(84, 70)" class="key rgb-yellow keypos-1">
<rect rx="6" ry="6" x="-26" y="-26" width="52" height="52" class="key rgb-yellow"/>
<text x="0" y="0" class="key rgb-yellow tap">!</text>
</g>
<g transform="translate(140, 42)" class="key rgb-yellow keypos-2">
<rect rx="6" ry="6" x="-26" y="-26" width="52" height="52" class="key rgb-yellow"/>
<text x="0" y="0" class="key rgb-yellow tap">@</text>
</g>
<g transform="translate(196, 28)" class="key rgb-yellow keypos-3">
<rect rx="6" ry="6" x="-26" y="-26" width="52" height="52" class="key rgb-yellow"/>
<text x="0" y="0" class="key rgb-yellow tap">[</text>
</g>
<g transform="translate(252, 42)" class="key rgb-yellow keypos-4">
<rect rx="6" ry="6" x="-26" y="-26" width="52" height="52" class="key rgb-yellow"/>
<text x="0" y="0" class="key rgb-yellow tap">]</text>
</g>
<g transform="translate(308, 49)" class="key keypos-5">
<rect rx="6" ry="6" x="-26" y="-26" width="52" height="52" class="key"/>
</g>
<g transform="translate(644, 49)" class="key keypos-6">
<rect rx="6" ry="6" x="-26" y="-26" width="52" height="52" class="key"/>
</g>
<g transform="translate(700, 42)" class="key rgb-blue keypos-7">
<rect rx="6" ry="6" x="-26" y="-26" width="52" height="52" class="key rgb-blue"/>
<text x="0" y="0" class="key rgb-blue tap">7</text>
</g>
<g transform="translate(756, 28)" class="key rgb-blue keypos-8">
<rect rx="6" ry="6" x="-26" y="-26" width="52" height="52" class="key rgb-blue"/>
<text x="0" y="0" class="key rgb-blue tap">8</text>
</g>
<g transform="translate(812, 42)" class="key rgb-blue keypos-9">
<rect rx="6" ry="6" x="-26" y="-26" width="52" height="52" class="key rgb-blue"/>
<text x="0" y="0" class="key rgb-blue tap">9</text>
</g>
<g transform="translate(868, 70)" class="key rgb-yellow keypos-10">
<rect rx="6" ry="6" x="-26" y="-26" width="52" height="52" class="key rgb-yellow"/>
<text x="0" y="0" class="key rgb-yellow tap">-</text>
</g>
<g transform="translate(924, 70)" class="key keypos-11">
<rect rx="6" ry="6" x="-26" y="-26" width="52" height="52" class="key"/>
</g>
<g transform="translate(28, 126)" class="key keypos-12">
<rect rx="6" ry="6" x="-26" y="-26" width="52" height="52" class="key"/>
</g>
<g transform="translate(84, 126)" class="key rgb-yellow keypos-13">
<rect rx="6" ry="6" x="-26" y="-26" width="52" height="52" class="key rgb-yellow"/>
<text x="0" y="0" class="key rgb-yellow tap">#</text>
</g>
<g transform="translate(140, 98)" class="key rgb-yellow keypos-14">
<rect rx="6" ry="6" x="-26" y="-26" width="52" height="52" class="key rgb-yellow"/>
<text x="0" y="0" class="key rgb-yellow tap">$</text>
</g>
<g transform="translate(196, 84)" class="key rgb-yellow keypos-15">
<rect rx="6" ry="6" x="-26" y="-26" width="52" height="52" class="key rgb-yellow"/>
<text x="0" y="0" class="key rgb-yellow tap">(</text>
</g>
<g transform="translate(252, 98)" class="key rgb-yellow keypos-16">
<rect rx="6" ry="6" x="-26" y="-26" width="52" height="52" class="key rgb-yellow"/>
<text x="0" y="0" class="key rgb-yellow tap">)</text>
</g>
<g transform="translate(308, 105)" class="key rgb-yellow keypos-17">
<rect rx="6" ry="6" x="-26" y="-26" width="52" height="52" class="key rgb-yellow"/>
<text x="0" y="0" class="key rgb-yellow tap">:</text>
</g>
<g transform="translate(644, 105)" class="key keypos-18">
<rect rx="6" ry="6" x="-26" y="-26" width="52" height="52" class="key"/>
</g>
<g transform="translate(700, 98)" class="key rgb-blue keypos-19">
<rect rx="6" ry="6" x="-26" y="-26" width="52" height="52" class="key rgb-blue"/>
<text x="0" y="0" class="key rgb-blue tap">4</text>
</g>
<g transform="translate(756, 84)" class="key rgb-blue keypos-20">
<rect rx="6" ry="6" x="-26" y="-26" width="52" height="52" class="key rgb-blue"/>
<text x="0" y="0" class="key rgb-blue tap">5</text>
</g>
<g transform="translate(812, 98)" class="key rgb-blue keypos-21">
<rect rx="6" ry="6" x="-26" y="-26" width="52" height="52" class="key rgb-blue"/>
<text x="0" y="0" class="key rgb-blue tap">6</text>
</g>
<g transform="translate(868, 126)" class="key rgb-yellow keypos-22">
<rect rx="6" ry="6" x="-26" y="-26" width="52" height="52" class="key rgb-yellow"/>
<text x="0" y="0" class="key rgb-yellow tap">+</text>
</g>
<g transform="translate(924, 126)" class="key rgb-yellow keypos-23">
<rect rx="6" ry="6" x="-26" y="-26" width="52" height="52" class="key rgb-yellow"/>
<text x="0" y="0" class="key rgb-yellow tap">=</text>
</g>
<g transform="translate(28, 182)" class="key keypos-24">
<rect rx="6" ry="6" x="-26" y="-26" width="52" height="52" class="key"/>
</g>
<g transform="translate(84, 182)" class="key rgb-yellow keypos-25">
<rect rx="6" ry="6" x="-26" y="-26" width="52" height="52" class="key rgb-yellow"/>
<text x="0" y="0" class="key rgb-yellow tap">%</text>
</g>
<g transform="translate(140, 154)" class="key rgb-yellow keypos-26">
<rect rx="6" ry="6" x="-26" y="-26" width="52" height="52" class="key rgb-yellow"/>
<text x="0" y="0" class="key rgb-yellow tap">^</text>
</g>
<g transform="translate(196, 140)" class="key rgb-yellow keypos-27">
<rect rx="6" ry="6" x="-26" y="-26" width="52" height="52" class="key rgb-yellow"/>
<text x="0" y="0" class="key rgb-yellow tap">{</text>
</g>
<g transform="translate(252, 154)" class="key rgb-yellow keypos-28">
<rect rx="6" ry="6" x="-26" y="-26" width="52" height="52" class="key rgb-yellow"/>
<text x="0" y="0" class="key rgb-yellow tap">}</text>
</g>
<g transform="translate(308, 161)" class="key keypos-29">
<rect rx="6" ry="6" x="-26" y="-26" width="52" height="52" class="key"/>
</g>
<g transform="translate(369, 193) rotate(30.0)" class="key keypos-30">
<rect rx="6" ry="6" x="-26" y="-26" width="52" height="52" class="key"/>
</g>
<g transform="translate(429, 239) rotate(45.0)" class="key keypos-31">
<rect rx="6" ry="6" x="-26" y="-26" width="52" height="52" class="key"/>
</g>
<g transform="translate(523, 239) rotate(-45.0)" class="key keypos-32">
<rect rx="6" ry="6" x="-26" y="-26" width="52" height="52" class="key"/>
</g>
<g transform="translate(583, 193) rotate(-30.0)" class="key keypos-33">
<rect rx="6" ry="6" x="-26" y="-26" width="52" height="52" class="key"/>
</g>
<g transform="translate(644, 161)" class="key rgb-blue keypos-34">
<rect rx="6" ry="6" x="-26" y="-26" width="52" height="52" class="key rgb-blue"/>
<text x="0" y="0" class="key rgb-blue tap">0</text>
</g>
<g transform="translate(700, 154)" class="key rgb-blue keypos-35">
<rect rx="6" ry="6" x="-26" y="-26" width="52" height="52" class="key rgb-blue"/>
<text x="0" y="0" class="key rgb-blue tap">1</text>
</g>
<g transform="translate(756, 140)" class="key rgb-blue keypos-36">
<rect rx="6" ry="6" x="-26" y="-26" width="52" height="52" class="key rgb-blue"/>
<text x="0" y="0" class="key rgb-blue tap">2</text>
</g>
<g transform="translate(812, 154)" class="key rgb-blue keypos-37">
<rect rx="6" ry="6" x="-26" y="-26" width="52" height="52" class="key rgb-blue"/>
<text x="0" y="0" class="key rgb-blue tap">3</text>
</g>
<g transform="translate(868, 182)" class="key rgb-yellow keypos-38">
<rect rx="6" ry="6" x="-26" y="-26" width="52" height="52" class="key rgb-yellow"/>
<text x="0" y="0" class="key rgb-yellow tap">.</text>
</g>
<g transform="translate(924, 182)" class="key rgb-yellow keypos-39">
<rect rx="6" ry="6" x="-26" y="-26" width="52" height="52" class="key rgb-yellow"/>
<text x="0" y="0" class="key rgb-yellow tap">\</text>
</g>
<g transform="translate(168, 210)" class="key keypos-40">
<rect rx="6" ry="6" x="-26" y="-26" width="52" height="52" class="key"/>
</g>
<g transform="translate(224, 210)" class="key keypos-41">
<rect rx="6" ry="6" x="-26" y="-26" width="52" height="52" class="key"/>
</g>
<g transform="translate(285, 218) rotate(15.0)" class="key keypos-42">
<rect rx="6" ry="6" x="-26" y="-26" width="52" height="52" class="key"/>
</g>
<g transform="translate(341, 241) rotate(30.0)" class="key keypos-43">
<rect rx="6" ry="6" x="-26" y="-26" width="52" height="52" class="key"/>
</g>
<g transform="translate(389, 278) rotate(45.0)" class="key keypos-44">
<rect rx="6" ry="6" x="-26" y="-26" width="52" height="52" class="key"/>
</g>
<g transform="translate(563, 278) rotate(-45.0)" class="key keypos-45">
<rect rx="6" ry="6" x="-26" y="-26" width="52" height="52" class="key"/>
</g>
<g transform="translate(611, 241) rotate(-30.0)" class="key keypos-46">
<rect rx="6" ry="6" x="-26" y="-26" width="52" height="52" class="key"/>
</g>
<g transform="translate(667, 218) rotate(-15.0)" class="key keypos-47">
<rect rx="6" ry="6" x="-26" y="-26" width="52" height="52" class="key"/>
</g>
<g transform="translate(728, 210)" class="key keypos-48">
<rect rx="6" ry="6" x="-26" y="-26" width="52" height="52" class="key"/>
</g>
<g transform="translate(784, 210)" class="key keypos-49">
<rect rx="6" ry="6" x="-26" y="-26" width="52" height="52" class="key"/>
</g>
</g>
</g>
</svg>
