<svg width="844" height="392" viewBox="0 0 844 392" class="keymap" xmlns="http://www.w3.org/2000/svg" xmlns:xlink="http://www.w3.org/1999/xlink">
<style>svg {
  font-family: -apple-system, BlinkMacSystemFont, "SF Pro Text", "Helvetica Neue", Helvetica, Arial, sans-serif;
  font-size: 14px;
  font-kerning: normal;
  text-rendering: optimizeLegibility;
}
text { text-anchor: middle; dominant-baseline: middle; }
rect.key { fill: #f5f5f5; stroke: #cccccc; }
rect.held { fill: #a8d8ea; }
text.tap { font-size: 12px; fill: #333333; }
text.hold { font-size: 10px; fill: #666666; }
/* RGB layer indicator borders */
.rgb-magenta > rect { stroke: #ff00ff; stroke-width: 2.5; }
.rgb-blue > rect { stroke: #4488ff; stroke-width: 2.5; }
.rgb-yellow > rect { stroke: #ffaa00; stroke-width: 2.5; }
.rgb-cyan > rect { stroke: #00dddd; stroke-width: 2.5; }
.rgb-green > rect { stroke: #44dd44; stroke-width: 2.5; }
.rgb-green-dark > rect { stroke: #228822; stroke-width: 2.5; }
.rgb-red > rect { stroke: #ff4444; stroke-width: 2.5; }
.rgb-orange > rect { stroke: #ff8000; stroke-width: 2.5; }
.rgb-purple > rect { stroke: #9400d3; stroke-width: 2.5; }
</style>
<g transform="translate(30, 0)" class="layer-Raise">
<text x="0" y="28" class="label" id="Raise">Raise:</text>
<g transform="translate(0, 56)">
<g transform="translate(28, 28)" class="key keypos-0">
<rect rx="6" ry="6" x="-26" y="-26" width="52" height="52" class="key"/>
</g>
<g transform="translate(84, 28)" class="key keypos-1">
<rect rx="6" ry="6" x="-26" y="-26" width="52" height="52" class="key"/>
</g>
<g transform="translate(140, 28)" class="key keypos-2">
<rect rx="6" ry="6" x="-26" y="-26" width="52" height="52" class="key"/>
</g>
<g transform="translate(196, 28)" class="key keypos-3">
<rect rx="6" ry="6" x="-26" y="-26" width="52" height="52" class="key"/>
</g>
<g transform="translate(252, 28)" class="key keypos-4">
<rect rx="6" ry="6" x="-26" y="-26" width="52" height="52" class="key"/>
</g>
<g transform="translate(308, 28)" class="key keypos-5">
<rect rx="6" ry="6" x="-26" y="-26" width="52" height="52" class="key"/>
</g>
<g transform="translate(364, 28)" class="key keypos-6">
<rect rx="6" ry="6" x="-26" y="-26" width="52" height="52" class="key"/>
</g>
<g transform="translate(420, 28)" class="key keypos-7">
<rect rx="6" ry="6" x="-26" y="-26" width="52" height="52" class="key"/>
</g>
<g transform="translate(476, 28)" class="key keypos-8">
<rect rx="6" ry="6" x="-26" y="-26" width="52" height="52" class="key"/>
</g>
<g transform="translate(532, 28)" class="key keypos-9">
<rect rx="6" ry="6" x="-26" y="-26" width="52" height="52" class="key"/>
</g>
<g transform="translate(588, 28)" class="key keypos-10">
<rect rx="6" ry="6" x="-26" y="-26" width="52" height="52" class="key"/>
</g>
<g transform="translate(644, 28)" class="key keypos-11">
<rect rx="6" ry="6" x="-26" y="-26" width="52" height="52" class="key"/>
</g>
<g transform="translate(700, 28)" class="key keypos-12">
<rect rx="6" ry="6" x="-26" y="-26" width="52" height="52" class="key"/>
</g>
<g transform="translate(756, 28)" class="key keypos-13">
<rect rx="6" ry="6" x="-26" y="-26" width="52" height="52" class="key"/>
</g>
<g transform="translate(28, 84)" class="key rgb-yellow keypos-14">
<rect rx="6" ry="6" x="-26" y="-26" width="52" height="52" class="key rgb-yellow"/>
<text x="0" y="0" class="key rgb-yellow tap">`</text>
</g>
<g transform="translate(84, 84)" class="key rgb-yellow keypos-15">
<rect rx="6" ry="6" x="-26" y="-26" width="52" height="52" class="key rgb-yellow"/>
<text x="0" y="0" class="key rgb-yellow tap">!</text>
</g>
<g transform="translate(140, 84)" class="key rgb-yellow keypos-16">
<rect rx="6" ry="6" x="-26" y="-26" width="52" height="52" class="key rgb-yellow"/>
<text x="0" y="0" class="key rgb-yellow tap">@</text>
</g>
<g transform="translate(196, 84)" class="key rgb-yellow keypos-17">
<rect rx="6" ry="6" x="-26" y="-26" width="52" height="52" class="key rgb-yellow"/>
<text x="0" y="0" class="key rgb-yellow tap">[</text>
</g>
<g transform="translate(252, 84)" class="key rgb-yellow keypos-18">
<rect rx="6" ry="6" x="-26" y="-26" width="52" height="52" class="key rgb-yellow"/>
<text x="0" y="0" class="key rgb-yellow tap">]</text>
</g>
<g transform="translate(308, 84)" class="key keypos-19">
<rect rx="6" ry="6" x="-26" y="-26" width="52" height="52" class="key"/>
</g>
<g transform="translate(364, 84)" class="key rgb-yellow keypos-20">
<rect rx="6" ry="6" x="-26" y="-26" width="52" height="52" class="key rgb-yellow"/>
<text x="0" y="0" class="key rgb-yellow tap">:</text>
</g>
<g transform="translate(420, 84)" class="key rgb-blue keypos-21">
<rect rx="6" ry="6" x="-26" y="-26" width="52" height="52" class="key rgb-blue"/>
<text x="0" y="0" class="key rgb-blue tap">7</text>
</g>
<g transform="translate(476, 84)" class="key rgb-blue keypos-22">
<rect rx="6" ry="6" x="-26" y="-26" width="52" height="52" class="key rgb-blue"/>
<text x="0" y="0" class="key rgb-blue tap">8</text>
</g>
<g transform="translate(532, 84)" class="key rgb-blue keypos-23">
<rect rx="6" ry="6" x="-26" y="-26" width="52" height="52" class="key rgb-blue"/>
<text x="0" y="0" class="key rgb-blue tap">9</text>
</g>
<g transform="translate(588, 84)" class="key rgb-yellow keypos-24">
<rect rx="6" ry="6" x="-26" y="-26" width="52" height="52" class="key rgb-yellow"/>
<text x="0" y="0" class="key rgb-yellow tap">-</text>
</g>
<g transform="translate(644, 84)" class="key keypos-25">
<rect rx="6" ry="6" x="-26" y="-26" width="52" height="52" class="key"/>
</g>
<g transform="translate(700, 84)" class="key keypos-26">
<rect rx="6" ry="6" x="-26" y="-26" width="52" height="52" class="key"/>
</g>
<g transform="translate(756, 84)" class="key keypos-27">
<rect rx="6" ry="6" x="-26" y="-26" width="52" height="52" class="key"/>
</g>
<g transform="translate(28, 140)" class="key keypos-28">
<rect rx="6" ry="6" x="-26" y="-26" width="52" height="52" class="key"/>
</g>
<g transform="translate(84, 140)" class="key keypos-29">
<rect rx="6" ry="6" x="-26" y="-26" width="52" height="52" class="key"/>
</g>
<g transform="translate(140, 140)" class="key rgb-yellow keypos-30">
<rect rx="6" ry="6" x="-26" y="-26" width="52" height="52" class="key rgb-yellow"/>
<text x="0" y="0" class="key rgb-yellow tap">#</text>
</g>
<g transform="translate(196, 140)" class="key rgb-yellow keypos-31">
<rect rx="6" ry="6" x="-26" y="-26" width="52" height="52" class="key rgb-yellow"/>
<text x="0" y="0" class="key rgb-yellow tap">$</text>
</g>
<g transform="translate(252, 140)" class="key rgb-yellow keypos-32">
<rect rx="6" ry="6" x="-26" y="-26" width="52" height="52" class="key rgb-yellow"/>
<text x="0" y="0" class="key rgb-yellow tap">(</text>
</g>
<g transform="translate(308, 140)" class="key rgb-yellow keypos-33">
<rect rx="6" ry="6" x="-26" y="-26" width="52" height="52" class="key rgb-yellow"/>
<text x="0" y="0" class="key rgb-yellow tap">)</text>
</g>
<g transform="translate(364, 140)" class="key keypos-34">
<rect rx="6" ry="6" x="-26" y="-26" width="52" height="52" class="key"/>
</g>
<g transform="translate(420, 140)" class="key rgb-blue keypos-35">
<rect rx="6" ry="6" x="-26" y="-26" width="52" height="52" class="key rgb-blue"/>
<text x="0" y="0" class="key rgb-blue tap">4</text>
</g>
<g transform="translate(476, 140)" class="key rgb-blue keypos-36">
<rect rx="6" ry="6" x="-26" y="-26" width="52" height="52" class="key rgb-blue"/>
<text x="0" y="0" class="key rgb-blue tap">5</text>
</g>
<g transform="translate(532, 140)" class="key rgb-blue keypos-37">
<rect rx="6" ry="6" x="-26" y="-26" width="52" height="52" class="key rgb-blue"/>
<text x="0" y="0" class="key rgb-blue tap">6</text>
</g>
<g transform="translate(588, 140)" class="key rgb-yellow keypos-38">
<rect rx="6" ry="6" x="-26" y="-26" width="52" height="52" class="key rgb-yellow"/>
<text x="0" y="0" class="key rgb-yellow tap">+</text>
</g>
<g transform="translate(644, 140)" class="key rgb-yellow keypos-39">
<rect rx="6" ry="6" x="-26" y="-26" width="52" height="52" class="key rgb-yellow"/>
<text x="0" y="0" class="key rgb-yellow tap">=</text>
</g>
<g transform="translate(728, 140)" class="key keypos-40">
<rect rx="6" ry="6" x="-54" y="-26" width="108" height="52" class="key"/>
</g>
<g transform="translate(28, 196)" class="key keypos-41">
<rect rx="6" ry="6" x="-26" y="-26" width="52" height="52" class="key"/>
</g>
<g transform="translate(84, 196)" class="key keypos-42">
<rect rx="6" ry="6" x="-26" y="-26" width="52" height="52" class="key"/>
</g>
<g transform="translate(140, 196)" class="key rgb-yellow keypos-43">
<rect rx="6" ry="6" x="-26" y="-26" width="52" height="52" class="key rgb-yellow"/>
<text x="0" y="0" class="key rgb-yellow tap">%</text>
</g>
<g transform="translate(196, 196)" class="key rgb-yellow keypos-44">
<rect rx="6" ry="6" x="-26" y="-26" width="52" height="52" class="key rgb-yellow"/>
<text x="0" y="0" class="key rgb-yellow tap">^</text>
</g>
<g transform="translate(252, 196)" class="key rgb-yellow keypos-45">
<rect rx="6" ry="6" x="-26" y="-26" width="52" height="52" class="key rgb-yellow"/>
<text x="0" y="0" class="key rgb-yellow tap">{</text>
</g>
<g transform="translate(308, 196)" class="key rgb-yellow keypos-46">
<rect rx="6" ry="6" x="-26" y="-26" width="52" height="52" class="key rgb-yellow"/>
<text x="0" y="0" class="key rgb-yellow tap">}</text>
</g>
<g transform="translate(364, 196)" class="key rgb-blue keypos-47">
<rect rx="6" ry="6" x="-26" y="-26" width="52" height="52" class="key rgb-blue"/>
<text x="0" y="0" class="key rgb-blue tap">0</text>
</g>
<g transform="translate(420, 196)" class="key rgb-blue keypos-48">
<rect rx="6" ry="6" x="-26" y="-26" width="52" height="52" class="key rgb-blue"/>
<text x="0" y="0" class="key rgb-blue tap">1</text>
</g>
<g transform="translate(476, 196)" class="key rgb-blue keypos-49">
<rect rx="6" ry="6" x="-26" y="-26" width="52" height="52" class="key rgb-blue"/>
<text x="0" y="0" class="key rgb-blue tap">2</text>
</g>
<g transform="translate(532, 196)" class="key rgb-blue keypos-50">
<rect rx="6" ry="6" x="-26" y="-26" width="52" height="52" class="key rgb-blue"/>
<text x="0" y="0" class="key rgb-blue tap">3</text>
</g>
<g transform="translate(588, 196)" class="key rgb-yellow keypos-51">
<rect rx="6" ry="6" x="-26" y="-26" width="52" height="52" class="key rgb-yellow"/>
<text x="0" y="0" class="key rgb-yellow tap">.</text>
</g>
<g transform="translate(644, 196)" class="key rgb-yellow keypos-52">
<rect rx="6" ry="6" x="-26" y="-26" width="52" height="52" class="key rgb-yellow"/>
<text x="0" y="0" class="key rgb-yellow tap">\</text>
</g>
<g transform="translate(700, 196)" class="key keypos-53">
<rect rx="6" ry="6" x="-26" y="-26" width="52" height="52" class="key"/>
</g>
<g transform="translate(756, 196)" class="key keypos-54">
<rect rx="6" ry="6" x="-26" y="-26" width="52" height="52" class="key"/>
</g>
<g transform="translate(28, 252)" class="key keypos-55">
<rect rx="6" ry="6" x="-26" y="-26" width="52" height="52" class="key"/>
</g>
<g transform="translate(84, 252)" class="key keypos-56">
<rect rx="6" ry="6" x="-26" y="-26" width="52" height="52" class="key"/>
</g>
<g transform="translate(140, 252)" class="key keypos-57">
<rect rx="6" ry="6" x="-26" y="-26" width="52" height="52" class="key"/>
</g>
<g transform="translate(196, 252)" class="key keypos-58">
<rect rx="6" ry="6" x="-26" y="-26" width="52" height="52" class="key"/>
</g>
<g transform="translate(287, 252)" class="key keypos-59">
<rect rx="6" ry="6" x="-61" y="-26" width="122" height="52" class="key"/>
</g>
<g transform="translate(427, 252)" class="key keypos-60">
<rect rx="6" ry="6" x="-75" y="-26" width="150" height="52" class="key"/>
</g>
<g transform="translate(532, 252)" class="key keypos-61">
<rect rx="6" ry="6" x="-26" y="-26" width="52" height="52" class="key"/>
</g>
<g transform="translate(588, 252)" class="key keypos-62">
<rect rx="6" ry="6" x="-26" y="-26" width="52" height="52" class="key"/>
</g>
<g transform="translate(644, 252)" class="key keypos-63">
<rect rx="6" ry="6" x="-26" y="-26" width="52" height="52" class="key"/>
</g>
<g transform="translate(700, 252)" class="key keypos-64">
<rect rx="6" ry="6" x="-26" y="-26" width="52" height="52" class="key"/>
</g>
<g transform="translate(756, 252)" class="key keypos-65">
<rect rx="6" ry="6" x="-26" y="-26" width="52" height="52" class="key"/>
</g>
</g>
</g>
</svg>
